<svg width="24" height="24" viewBox="0 0 24 24" fill="none" xmlns="http://www.w3.org/2000/svg">
<path fill-rule="evenodd" clip-rule="evenodd" d="M16 7c0 2.206-1.794 4-4 4S8 9.206 8 7s1.794-4 4-4 4 1.794 4 4zm3 13a1 1 0 01-1 1H6a1 1 0 01-1-1c0-3.86 3.141-7 7-7s7 3.14 7 7z" fill="#222"></path><mask id="a" maskUnits="userSpaceOnUse" x="5" y="3" width="14" height="18"><path fill-rule="evenodd" clip-rule="evenodd" d="M16 7c0 2.206-1.794 4-4 4S8 9.206 8 7s1.794-4 4-4 4 1.794 4 4zm3 13a1 1 0 01-1 1H6a1 1 0 01-1-1c0-3.86 3.141-7 7-7s7 3.14 7 7z" fill="#fff"></path>
</mask>
</svg>